<?xml version="1.0" encoding="utf-8"?>
<!-- Generator: Adobe Illustrator 16.0.0, SVG Export Plug-In . SVG Version: 6.00 Build 0)  -->
<!DOCTYPE svg PUBLIC "-//W3C//DTD SVG 1.1//EN" "http://www.w3.org/Graphics/SVG/1.1/DTD/svg11.dtd">
<svg version="1.1" id="logo" xmlns="http://www.w3.org/2000/svg" x="0px"
     y="0px"
     width="1000px" height="133.335px" viewBox="-202.36 354.278 1000 133.335"
     enable-background="new -202.36 354.278 1000 133.335"
     xml:space="preserve">
<g>
	<path d="M-68.719,420.945c0.288,17.824-6.809,34.972-19.606,47.381c-12.393,12.646-29.455,19.621-47.159,19.274
		c-17.777,0.265-34.875-6.809-47.272-19.553c-26.074-25.985-26.149-68.189-0.162-94.265c0.055-0.055,0.107-0.109,0.162-0.164
		c12.433-12.662,29.528-19.653,47.272-19.33c17.744-0.273,34.813,6.803,47.159,19.552
		C-75.575,386.168-68.482,403.212-68.719,420.945z M-72.772,420.945c-5.167-11.522-13.534-21.318-24.108-28.218
		c-11.447-7.813-25.025-11.906-38.883-11.72c-13.849-0.128-27.411,3.958-38.883,11.72c-10.409,6.997-18.644,16.772-23.773,28.218
		c11.21,24.478,35.732,40.109,62.656,39.938C-108.756,461.06-84.134,445.447-72.772,420.945z M-99.991,420.945
		c-0.031,19.59-15.903,35.464-35.493,35.493c-19.542-0.035-35.356-15.905-35.32-35.446c0.035-19.542,15.905-35.354,35.445-35.32
		c9.348,0.016,18.307,3.73,24.924,10.332C-103.625,402.496-99.84,411.539-99.991,420.945z"/>
    <path d="M-56.831,420.945c0.541-35.336,29.628-63.543,64.964-63.001c0.175,0.003,0.35,0.006,0.525,0.011
		c19.776-0.127,38.538,8.743,50.991,24.107l-17.275,17.275c-8.035-10.576-20.439-16.931-33.716-17.275
		c-21.475,0-38.883,17.408-38.883,38.883s17.408,38.883,38.883,38.883c13.528-0.208,26.226-6.566,34.494-17.275l17.387,17.275
		c-12.716,15.522-31.817,24.399-51.881,24.105c-35.331,0.833-64.647-27.133-65.48-62.464
		C-56.825,421.295-56.829,421.12-56.831,420.945z"/>
    <path d="M70.204,360.566h50.88c24.163,0,38.883,14.664,38.883,31.883c0.105,10.977-6.499,20.908-16.665,25.052
		c13.025,3.864,22.027,15.745,22.22,29.33c0,18.996-15.553,34.494-41.438,34.494h-53.88V360.566z M119.362,407.169
		c6.672,0.786,12.717-3.987,13.502-10.66c0.786-6.672-3.987-12.717-10.66-13.503c-0.944-0.111-1.899-0.111-2.843,0H96.089v24.163
		H119.362z M122.806,458.938c10.386,0,16.663-6.054,16.663-14.72c0-8.664-5.998-14.664-16.663-14.664H96.089v29.384H122.806z"/>
    <path d="M169.076,464.938l17.275-17.221c7.224,8.141,17.556,12.843,28.44,12.943c13.831,0,19.831-6.055,19.831-13.831
		c0-20.72-60.379-11.11-60.379-53.492c0-18.997,16.663-35.383,43.993-35.383c15.247-0.34,29.945,5.7,40.549,16.664l-17.219,17.275
		c-5.706-6.313-13.718-10.058-22.22-10.388c-12.941,0-18.108,5.222-18.108,12.109c0,20.72,60.379,11.11,60.379,53.492
		c0,19.83-17.275,37.105-45.713,37.105C198.258,484.767,181.217,477.754,169.076,464.938z"/>
    <path d="M304.554,360.566h23.273l58.546,75.043v-75.043h25.885v120.758h-23.33l-58.489-75.044v75.044h-25.885V360.566z"/>
    <path d="M429.978,360.566h89.707v24.163h-63.878v23.273h49.992v23.275h-49.992v25.939h65.6v24.107h-91.429V360.566z"/>
    <path d="M527.518,360.566h26.718l25.052,81.097h0.833l25.052-81.097h24.163l24.995,81.097h0.89l24.995-81.097h26.772
		l-39.716,120.758h-24.995l-24.496-78.487h-1.056l-24.496,78.487h-25.052L527.518,360.566z"/>
    <path d="M705.1,464.938l17.275-17.221c7.224,8.141,17.556,12.843,28.439,12.943c13.831,0,19.831-6.055,19.831-13.831
		c0-20.72-60.38-11.11-60.38-53.492c0-18.997,16.387-35.383,43.991-35.383c15.249-0.34,29.947,5.7,40.551,16.664l-17.221,17.275
		c-5.706-6.313-13.716-10.058-22.218-10.388c-12.941,0-18.108,5.222-18.108,12.109c0,20.72,60.379,11.11,60.379,53.492
		c0,19.83-17.275,37.105-45.715,37.105C734.281,484.767,717.24,477.754,705.1,464.938z"/>
</g>
</svg>
